<svg data-v-423bf9ae="" xmlns="http://www.w3.org/2000/svg" viewBox="0 0 487 90" class="iconLeft"><!----><!----><!----><g data-v-423bf9ae="" id="c19b772a-2b93-4192-b4db-7321df2eb3c0" fill="black" transform="matrix(5.535055272639999,0,0,5.535055272639999,120.30758276873263,-4.428044192598577)"><path d="M1.13 3.51L1.13 14.18L1.83 14.18L1.83 4.70L6.23 14.18L7.06 14.18L7.06 3.51L6.37 3.51L6.37 13.01L2.02 3.51ZM10.11 4.16L14.41 4.16L14.41 3.51L9.38 3.51L9.38 14.18L14.55 14.18L14.55 13.54L10.11 13.54L10.11 8.97L13.92 8.97L13.92 8.33L10.11 8.33ZM21.70 3.51L21.70 10.56C21.70 12.53 21.46 13.69 19.39 13.69C17.32 13.69 17.08 12.53 17.08 10.56L17.08 3.51L16.35 3.51L16.35 10.51C16.35 12.98 16.81 14.35 19.39 14.35C21.95 14.35 22.43 12.96 22.43 10.51L22.43 3.51ZM27.69 9.55L24.39 9.55L24.39 10.15L27.69 10.15ZM30.52 4.16L34.82 4.16L34.82 3.51L29.79 3.51L29.79 14.18L34.96 14.18L34.96 13.54L30.52 13.54L30.52 8.97L34.33 8.97L34.33 8.33L30.52 8.33ZM35.73 5.98L38.18 14.18L39.09 14.18L41.55 5.98L40.78 5.98L38.64 13.37L36.53 5.98ZM47.03 12.05C47.00 13.17 46.55 13.73 45.25 13.73C43.79 13.73 43.32 12.99 43.32 11.31L43.32 10.18L47.75 10.18L47.75 8.81C47.75 6.75 47.00 5.81 45.22 5.81C43.48 5.81 42.63 6.68 42.63 8.92L42.63 11.30C42.63 13.52 43.44 14.35 45.26 14.35C46.93 14.35 47.67 13.59 47.68 12.05ZM45.22 6.43C46.69 6.43 47.08 7.20 47.08 8.81L47.08 9.59L43.32 9.59L43.32 8.88C43.32 7.10 43.79 6.43 45.22 6.43ZM49.70 5.98L49.70 14.18L50.39 14.18L50.39 8.37C50.39 7.11 51.20 6.44 52.33 6.44C53.80 6.44 54.22 7.17 54.22 8.79L54.22 14.18L54.91 14.18L54.91 8.75C54.91 6.89 54.39 5.81 52.50 5.81C51.49 5.81 50.76 6.20 50.37 6.79L50.32 5.98ZM58.95 13.71C57.99 13.71 57.58 13.38 57.58 11.98L57.58 6.76L59.65 6.76L59.65 6.15L57.58 6.15L57.58 4.20L56.88 4.20L56.88 11.98C56.88 13.59 57.36 14.35 58.84 14.35C59.18 14.35 59.51 14.29 59.67 14.25L59.67 13.62C59.47 13.66 59.22 13.71 58.95 13.71ZM63.55 9.56C62.43 9.34 61.80 9.09 61.80 7.91C61.80 6.99 62.31 6.41 63.59 6.41C64.89 6.41 65.35 6.96 65.39 7.99L66.05 7.99C66.05 6.61 65.31 5.81 63.59 5.81C61.89 5.81 61.14 6.69 61.14 7.94C61.14 9.55 62.08 9.93 63.34 10.16C64.57 10.40 65.48 10.65 65.48 12.00C65.48 13.17 64.81 13.75 63.53 13.75C62.09 13.75 61.57 13.09 61.57 12.01L60.91 12.01C60.91 13.62 61.80 14.35 63.53 14.35C65.32 14.35 66.15 13.44 66.15 11.96C66.15 10.16 64.86 9.83 63.55 9.56Z"></path></g><!----><g data-v-423bf9ae="" id="5babc642-4fc5-4953-8652-ed0e1190503e" transform="matrix(1.2098401662693343,0,0,1.2098401662693343,-6.531531323707995,-14.687422642793031)" stroke="none" fill="black"><path d="M6.058 60.052a50.472 50.472 0 0 1 3.472-6.147c3.361-5.093 7.493-9.48 12.216-13.324 3.587-2.919 7.43-5.454 11.498-7.648 2.987-1.611 6.054-3.048 9.257-4.184.092-.033.18-.143.221-.239a17.31 17.31 0 0 1 2.002-3.483c1.748-2.366 3.924-4.277 6.334-5.934 3.483-2.395 7.265-4.195 11.238-5.61.663-.236 1.334-.447 2.021-.676.046.126.085.219.114.314.402 1.31.634 2.651.763 4.014.165 1.749.169 3.497.046 5.248-.024.337-.04.675-.061 1.048 2.787-1.721 5.788-2.775 8.911-3.645 0 .127.003.21-.001.293-.063 1.337-.281 2.651-.586 3.952-.713 3.042-1.791 5.96-3.024 8.825-.276.64-.565 1.274-.851 1.917 4.233 3.579 8.035 7.572 11.659 11.719-.461.223-.907.4-1.314.643-.648.389-1.043.959-1.093 1.741-.017.267.054.446.294.604 4.891 3.226 9.775 6.462 14.665 9.689.199.131.244.231.158.464-.902 2.436-2.402 4.453-4.328 6.166-2.607 2.319-5.626 3.924-8.888 5.112-.653.238-1.264.303-1.959.144-2.606-.599-5.225-1.136-7.839-1.703-1.776-.385-3.548-.431-5.318.023-2.451.627-4.446 1.999-6.184 3.788a.34.34 0 0 0-.08.226 9.84 9.84 0 0 1-.321 2.915c-.508 1.959-1.468 3.696-2.634 5.331-1.444 2.026-3.186 3.782-4.981 5.489-.03.029-.074.043-.127.073-.194-6.08-2.547-11.11-7.149-15.07.897 2.164 1.434 4.385 1.181 6.8-.073-.078-.112-.113-.142-.154-1.473-2.028-3.154-3.873-4.964-5.601-4.007-3.825-8.512-6.913-13.578-9.172a43.33 43.33 0 0 0-9.796-3.042c-1.738-.321-3.488-.566-5.255-.626-1.53-.052-3.061-.04-4.592-.054-.35-.003-.701 0-1.084 0 .037-.086.067-.157.099-.226zm53.51 7.191c.463-.046.926-.115 1.39-.135 1.216-.053 2.433-.122 3.649-.117 2.999.012 5.965.362 8.899.985 1.951.414 3.869.944 5.746 1.623.252.091.488.1.752.006 2.869-1.02 5.546-2.394 7.932-4.301.398-.318.771-.669 1.154-1.006.023-.02.037-.049.061-.082-.542-.665-.979-1.385-1.244-2.202-.42-1.293-.49-2.617-.359-3.959.03-.304.066-.61.131-.909.035-.163-.009-.235-.142-.315-1.387-.831-2.771-1.669-4.155-2.505-2.332-1.408-4.664-2.816-6.993-4.229a.768.768 0 0 1-.251-.265c-1.258-2.157-2.822-4.041-4.873-5.491-2.043-1.444-4.316-2.284-6.802-2.554a15.246 15.246 0 0 0-4.689.195c-.085.017-.168.038-.252.058-.014.003-.024.017-.073.054l3.112.919-.003.034c-.462.021-.924.034-1.385.065-2.547.168-5.029.628-7.361 1.715-1.274.594-2.403 1.393-3.292 2.5-1.077 1.34-1.582 2.887-1.658 4.591-.085 1.905.32 3.727.936 5.511.201.582.431 1.153.665 1.722.11-1.253.391-2.323.735-2.698.139.278.273.55.411.82.816 1.601 1.853 3.06 2.884 4.524 1.573 2.234 2.965 4.572 3.906 7.15.26.713.444 1.454.662 2.182.022.073.042.146.072.251 1.398-1.283 2.935-2.309 4.749-3.015-1.428-.585-2.878-.804-4.314-1.122zM38.023 34.577c-3.167 1.338-6.117 3.062-8.936 5.019a63.775 63.775 0 0 0-7.886 6.496c-3.406 3.282-6.433 6.884-9.138 10.76-.031.044-.059.091-.115.176.222-.025.409-.05.598-.067 3.713-.342 7.306.263 10.829 1.387 3.06.977 5.92 2.383 8.631 4.098.06.038.12.074.181.11.005.003.013-.001.042-.005-.256-.305-.514-.594-.753-.899-1.349-1.722-2.216-3.658-2.521-5.829-.319-2.276.073-4.456.957-6.558.2-.477.443-.936.666-1.403.029-.061.055-.123.102-.228-2.12.778-3.871 1.999-5.277 3.716l-.062-.024c.015-.277.016-.556.049-.831.234-1.985.978-3.788 1.985-5.493 1.512-2.56 3.518-4.692 5.776-6.602 1.803-1.526 3.741-2.862 5.763-4.08.065-.039.127-.082.19-.124l-.021-.043c-.354.141-.71.276-1.06.424zm15.613-1.625c.172-1.49 1.115-2.484 2.176-3.411-.171.587-.296 1.18-.219 1.788.077.604.195 1.203.302 1.848.551-.1 1.038-.17 1.516-.281.611-.143 1.212-.326 1.821-.477.186-.046.291-.151.382-.311.808-1.413 1.38-2.921 1.829-4.479a29.334 29.334 0 0 0 1.142-7.594c.023-1.207-.041-2.415-.067-3.622-.001-.029-.01-.058-.023-.128-.422.19-.83.366-1.23.557-2.578 1.231-4.994 2.715-7.135 4.62-1.568 1.395-2.917 2.967-3.812 4.89-.735 1.578-1.045 3.233-.874 4.97a10 10 0 0 0 .167 1.011c.938-3.585 3.131-6.294 5.909-8.601-1.763 2.846-2.42 5.908-1.884 9.22z"></path><path d="M68.504 50.398c-.763-.63-1.646-1.032-2.576-1.335-2.273-.741-4.624-.987-6.997-1.086l-1.11-.043-.02-.072c.392-.257.771-.535 1.177-.766 2.754-1.569 5.762-2.168 8.89-2.29a.5.5 0 0 1 .293.109c1.967 1.512 3.93 3.028 5.894 4.545.112.086.22.176.331.264l-.025.042-5.001-1.791c.053.943-.135 1.775-.754 2.48-.049-.027-.079-.038-.102-.057zm-2.592-4.057c-.105-.159-.243-.123-.375-.095-.956.208-1.912.417-2.865.638a8.23 8.23 0 0 0-.943.298c1.581-.058 3.117.146 4.614.746-.021-.583-.117-1.112-.431-1.587zm1.566 2.164c.36-.477.419-1.382.133-1.852-.082.262-.139.546-.26.801-.118.249-.301.467-.463.712l.59.339z"></path></g><!----></svg>